<svg width="64" height="64" viewBox="0 0 64 64" fill="none" xmlns="http://www.w3.org/2000/svg">
<path d="M44.5022 4.50146H19.5024C11.2179 4.50146 4.50195 11.2174 4.50195 19.5019V44.5018C4.50195 52.7863 11.2179 59.5022 19.5024 59.5022H44.5022C52.7868 59.5022 59.5027 52.7863 59.5027 44.5018V19.5019C59.5027 11.2174 52.7868 4.50146 44.5022 4.50146Z" fill="url(#paint0_linear_310_2)"/>
<g filter="url(#filter0_dd_310_2)">
<path fill-rule="evenodd" clip-rule="evenodd" d="M39.221 16.0519C38.8789 16.0901 38.546 16.2072 38.2132 16.4268C38.7337 17.0748 37.6829 23.1753 38.9988 24.0011L40.0258 24.6457V39.3574L38.4126 40.5661C37.1692 41.4977 38.5251 46.8637 38.199 47.5538C38.5593 47.7738 39.0976 48.0085 39.5686 47.9512C39.7195 47.9323 39.8723 47.8907 40.0237 47.8166L46.5885 44.5977C47.304 44.2469 48.0261 43.9569 48.0261 43.1601V20.8434C48.0261 20.0466 47.3041 19.7565 46.5885 19.4059L40.0237 16.1869C39.8723 16.1128 39.7196 16.0705 39.5686 16.052C39.4509 16.0368 39.3351 16.0405 39.221 16.0519Z" fill="url(#paint1_linear_310_2)"/>
<path fill-rule="evenodd" clip-rule="evenodd" d="M16.4453 36.4993L37.8049 16.7585C38.7747 15.8622 40.0307 16.18 40.0307 18.0338V24.678L20.2838 39.7805C19.9385 40.0519 19.0386 40.6995 18.2535 39.9529L16.2557 38.0535C15.7315 37.5551 16.0296 36.8835 16.4453 36.4993Z" fill="url(#paint2_linear_310_2)"/>
<path fill-rule="evenodd" clip-rule="evenodd" d="M16.4453 27.5419L37.8049 47.2827C38.7747 48.179 40.0307 47.8612 40.0307 46.0074V39.3632L20.2838 24.2607C19.9385 23.9893 19.0386 23.3418 18.2535 24.0883L16.2557 25.9877C15.7315 26.4861 16.0296 27.1576 16.4453 27.5419Z" fill="url(#paint3_linear_310_2)"/>
</g>
<defs>
<filter id="filter0_dd_310_2" x="11.9756" y="16.042" width="40.0508" height="39.918" filterUnits="userSpaceOnUse" color-interpolation-filters="sRGB">
<feFlood flood-opacity="0" result="BackgroundImageFix"/>
<feColorMatrix in="SourceAlpha" type="matrix" values="0 0 0 0 0 0 0 0 0 0 0 0 0 0 0 0 0 0 127 0" result="hardAlpha"/>
<feOffset dy="4"/>
<feGaussianBlur stdDeviation="2"/>
<feComposite in2="hardAlpha" operator="out"/>
<feColorMatrix type="matrix" values="0 0 0 0 0.0509804 0 0 0 0 0.494118 0 0 0 0 0.937255 0 0 0 0.34 0"/>
<feBlend mode="normal" in2="BackgroundImageFix" result="effect1_dropShadow_310_2"/>
<feColorMatrix in="SourceAlpha" type="matrix" values="0 0 0 0 0 0 0 0 0 0 0 0 0 0 0 0 0 0 127 0" result="hardAlpha"/>
<feOffset dy="4"/>
<feGaussianBlur stdDeviation="2"/>
<feComposite in2="hardAlpha" operator="out"/>
<feColorMatrix type="matrix" values="0 0 0 0 0 0 0 0 0 0 0 0 0 0 0 0 0 0 0.18 0"/>
<feBlend mode="normal" in2="effect1_dropShadow_310_2" result="effect2_dropShadow_310_2"/>
<feBlend mode="normal" in="SourceGraphic" in2="effect2_dropShadow_310_2" result="shape"/>
</filter>
<linearGradient id="paint0_linear_310_2" x1="4.49466" y1="59.4924" x2="59.4971" y2="4.48994" gradientUnits="userSpaceOnUse">
<stop stop-color="white"/>
<stop offset="1" stop-color="white"/>
</linearGradient>
<linearGradient id="paint1_linear_310_2" x1="37.8756" y1="47.9542" x2="56.3106" y2="42.0923" gradientUnits="userSpaceOnUse">
<stop stop-color="#2E55E7"/>
<stop offset="1" stop-color="#0D7EEF"/>
</linearGradient>
<linearGradient id="paint2_linear_310_2" x1="15.9724" y1="40.2962" x2="39.9963" y2="16.2404" gradientUnits="userSpaceOnUse">
<stop stop-color="#2E55E7"/>
<stop offset="1" stop-color="#0D7EEF"/>
</linearGradient>
<linearGradient id="paint3_linear_310_2" x1="15.9724" y1="47.7596" x2="39.9962" y2="23.7037" gradientUnits="userSpaceOnUse">
<stop stop-color="#2E55E7"/>
<stop offset="1" stop-color="#0D7EEF"/>
</linearGradient>
</defs>
</svg>
