<svg width="64" height="64" viewBox="0 0 64 64" fill="none" xmlns="http://www.w3.org/2000/svg">
<path opacity="0.01" d="M16.5176 2.00329C8.51994 2.00329 2.00391 8.73854 2.00391 16.9932V48.9989C2.00391 57.2535 8.52372 63.9963 16.5176 63.9963H47.4876C55.4777 63.9963 62.0013 57.2573 62.0013 48.9989V16.997C62.0013 8.74232 55.4777 1.99951 47.4876 1.99951L16.5176 2.00329ZM17.4852 3.96868H46.5163C53.4859 3.96868 59.1024 9.76659 59.1024 16.9705V46.9692C59.1024 54.1731 53.4896 59.971 46.5163 59.971H17.4889C10.5156 59.971 4.90286 54.1731 4.90286 46.9692V16.9705C4.90286 9.76659 10.5156 3.96868 17.4889 3.96868H17.4852Z" fill="black"/>
<path opacity="0.01" d="M16.4764 3.00085C9.04188 3.00085 3.00586 9.24854 3.00586 16.9325V49.0591C3.00586 56.7506 9.04188 62.9983 16.4764 62.9983H47.5296C54.964 62.9983 61.0001 56.7506 61.0001 49.0591V16.9325C61.0001 9.24476 54.964 2.99707 47.5296 2.99707L16.4764 3.00085ZM17.5044 3.96843H46.5015C53.4635 3.96843 59.0687 9.76634 59.0687 16.9703V46.969C59.0687 54.1729 53.4635 59.9708 46.5015 59.9708H17.5006C10.5386 59.9708 4.93346 54.1729 4.93346 46.969V16.9703C4.93346 9.76634 10.5424 3.96843 17.5044 3.96843Z" fill="black"/>
<path opacity="0.03" d="M16.2913 3.99902C9.23858 3.99902 3.53516 9.81583 3.53516 17.0009V49.0027C3.53516 56.184 9.46913 62.0008 16.5181 62.0008H47.5108C54.5636 62.0008 60.4635 56.1878 60.4635 48.999V17.0009C60.4635 9.81961 54.7563 4.0028 47.7074 4.0028H47.3407C54.1213 4.33163 59.4884 9.98213 59.4884 16.9744V46.9731C59.4884 54.177 53.7963 59.9749 46.7247 59.9749H17.2816C10.2099 59.9749 4.51785 54.177 4.51785 46.9731V16.9706C4.51785 9.97835 9.88489 4.32785 16.6655 3.99902H16.2913Z" fill="black"/>
<path opacity="0.03" d="M4.00003 46.9697V49.0007C4.00003 55.6487 9.89608 61.0008 16.5441 61.0008H47.5053C54.1534 61.0008 60.0004 55.6487 60.0004 49.0007V47.0087C59.9993 48.7138 59.6619 50.402 59.0077 51.9766C58.3535 53.5512 57.3953 54.9814 56.1879 56.1854C54.9805 57.3894 53.5476 58.3435 51.9711 58.9932C50.3946 59.6429 48.7055 59.9755 47.0003 59.9718H17.0021C15.2936 59.9756 13.6011 59.6419 12.0219 58.9898C10.4427 58.3378 9.00785 57.3802 7.79973 56.1721C6.59161 54.964 5.63403 53.5291 4.98197 51.9499C4.32991 50.3707 3.99621 48.6782 4.00003 46.9697Z" fill="black"/>
<path opacity="0.05" d="M4 45V47.2375C4 54.5662 9.94531 60.4661 16.5936 60.4661H47.4352C54.0873 60.4661 60.0024 54.5662 60.0024 47.2375V45.0454C59.9797 52.9636 54.1931 59.3323 47.0005 59.3323H17.0018C9.80169 59.3323 4 52.9372 4 45Z" fill="black"/>
<path d="M46.9948 3.99902H16.9999C9.81917 3.99902 3.99805 9.82014 3.99805 17.0008V46.9957C3.99805 54.1764 9.81917 59.9976 16.9999 59.9976H46.9948C54.1755 59.9976 59.9966 54.1764 59.9966 46.9957V17.0008C59.9966 9.82014 54.1755 3.99902 46.9948 3.99902Z" fill="#202020"/>
<g opacity="0.485146" filter="url(#filter0_f_340_2)">
<path d="M24.5001 9.5C20.345 9.5 17 12.845 17 17.0001C17 21.1551 20.345 24.5001 24.5001 24.5001C20.345 24.5001 17 27.8451 17 32.0002C17 36.1552 20.345 39.5002 24.5001 39.5002C22.5109 39.5002 20.6032 40.2904 19.1967 41.6969C17.7902 43.1035 17 45.0111 17 47.0003C17 48.9894 17.7902 50.8971 19.1967 52.3036C20.6032 53.7101 22.5109 54.5003 24.5001 54.5003C26.4892 54.5003 28.3969 53.7101 29.8034 52.3036C31.2099 50.8971 32.0001 48.9894 32.0001 47.0003V24.5001H39.5002C43.6552 24.5001 47.0002 21.1551 47.0002 17.0001C47.0002 12.845 43.6552 9.5 39.5002 9.5H24.5001ZM39.5002 24.5001C37.511 24.5001 35.6034 25.2903 34.1968 26.6968C32.7903 28.1034 32.0001 30.011 32.0001 32.0002C32.0001 33.9893 32.7903 35.897 34.1968 37.3035C35.6034 38.71 37.511 39.5002 39.5002 39.5002C41.4893 39.5002 43.397 38.71 44.8035 37.3035C46.21 35.897 47.0002 33.9893 47.0002 32.0002C47.0002 30.011 46.21 28.1034 44.8035 26.6968C43.397 25.2903 41.4893 24.5001 39.5002 24.5001Z" fill="black"/>
</g>
<path d="M24.4987 39.5005C22.5099 39.5005 20.6026 40.2905 19.1963 41.6968C17.79 43.1031 17 45.0104 17 46.9992C16.9995 47.9843 17.1931 48.9598 17.5697 49.87C17.9463 50.7802 18.4986 51.6073 19.195 52.3041C19.8914 53.0008 20.7182 53.5535 21.6282 53.9306C22.5383 54.3076 23.5137 54.5017 24.4987 54.5017C25.4841 54.5022 26.4599 54.3085 27.3704 53.9316C28.2809 53.5548 29.1081 53.0022 29.8049 52.3054C30.5017 51.6086 31.0543 50.7814 31.4312 49.8709C31.808 48.9604 32.0017 47.9846 32.0012 46.9992V39.5005H24.4987Z" fill="url(#paint0_linear_340_2)"/>
<path d="M24.4987 24.4995H32.0013V39.5007H24.4987C23.5134 39.5027 22.5374 39.3101 21.6268 38.934C20.7161 38.5578 19.8886 38.0055 19.1919 37.3088C18.4952 36.6121 17.9429 35.7847 17.5668 34.874C17.1906 33.9633 16.998 32.9873 17 32.002C17 27.8444 20.345 24.4995 24.4987 24.4995Z" fill="url(#paint1_linear_340_2)"/>
<path d="M39.5007 39.4969C43.6421 39.4969 46.9994 36.1396 46.9994 31.9982C46.9994 27.8568 43.6421 24.4995 39.5007 24.4995C35.3593 24.4995 32.002 27.8568 32.002 31.9982C32.002 36.1396 35.3593 39.4969 39.5007 39.4969Z" fill="url(#paint2_linear_340_2)"/>
<path d="M24.4988 9.49806C23.5131 9.49607 22.5368 9.68879 21.6259 10.0652C20.7149 10.4415 19.8873 10.9942 19.1906 11.6913C18.4938 12.3884 17.9416 13.2163 17.5657 14.1274C17.1898 15.0385 16.9975 16.0149 17 17.0006C16.998 17.9859 17.1906 18.9619 17.5668 19.8726C17.9429 20.7833 18.4952 21.6107 19.1919 22.3074C19.8886 23.0041 20.7161 23.5564 21.6268 23.9326C22.5374 24.3087 23.5134 24.5013 24.4988 24.4993H32.0013V9.49806H24.4988Z" fill="url(#paint3_linear_340_2)"/>
<path d="M32.002 9.49805H39.5007C43.6582 9.49805 46.9994 12.843 46.9994 17.0006C47.0014 17.9859 46.8088 18.9619 46.4327 19.8726C46.0565 20.7832 45.5042 21.6107 44.8075 22.3074C44.1108 23.0041 43.2834 23.5564 42.3727 23.9325C41.462 24.3087 40.486 24.5013 39.5007 24.4993H32.002V9.49805Z" fill="url(#paint4_linear_340_2)"/>
<defs>
<filter id="filter0_f_340_2" x="13.079" y="5.57898" width="37.842" height="52.8423" filterUnits="userSpaceOnUse" color-interpolation-filters="sRGB">
<feFlood flood-opacity="0" result="BackgroundImageFix"/>
<feBlend mode="normal" in="SourceGraphic" in2="BackgroundImageFix" result="shape"/>
<feGaussianBlur stdDeviation="1.96051" result="effect1_foregroundBlur_340_2"/>
</filter>
<linearGradient id="paint0_linear_340_2" x1="24.442" y1="55.7981" x2="24.442" y2="37.5956" gradientUnits="userSpaceOnUse">
<stop stop-color="#06935C"/>
<stop offset="1" stop-color="#13F59D"/>
</linearGradient>
<linearGradient id="paint1_linear_340_2" x1="26.0559" y1="43.6167" x2="26.0559" y2="20.9429" gradientUnits="userSpaceOnUse">
<stop stop-color="#751FE0"/>
<stop offset="1" stop-color="#A776E5"/>
</linearGradient>
<linearGradient id="paint2_linear_340_2" x1="39.6216" y1="42.0066" x2="39.6216" y2="22.5038" gradientUnits="userSpaceOnUse">
<stop stop-color="#0183B7"/>
<stop offset="1" stop-color="#53CDFE"/>
</linearGradient>
<linearGradient id="paint3_linear_340_2" x1="29.416" y1="32.221" x2="29.416" y2="4.92096" gradientUnits="userSpaceOnUse">
<stop stop-color="#F5400A"/>
<stop offset="1" stop-color="#F68565"/>
</linearGradient>
<linearGradient id="paint4_linear_340_2" x1="37.4408" y1="28.0219" x2="37.4408" y2="7.66116" gradientUnits="userSpaceOnUse">
<stop stop-color="#FF4833"/>
<stop offset="1" stop-color="#FF998D"/>
</linearGradient>
</defs>
</svg>
